# xmcd
#
# Track frame offsets:
#	150
#	13904
#	24587
#	36680
#	48194
#	58147
#	76427
#	87893
#	98370
#	112886
#	124890
#	140180
#	152028
#	163925
#	177432
#	188455
#
# Disc length: 2660 seconds
#
# Revision: 1
# Processed by: cddbd v1.5.1PL2 Copyright (c) Steve Scherf et al.
# Submitted via: audiograbber 1.83.01
#
DISCID=d50a6210
DTITLE=Verschiedene - The Country Club Collection - Country Cowgirls
DYEAR=2005
DGENRE=Country
TTITLE0=Patsy Cline - A Church , a Courtroom , and then Goodbye
TTITLE1=Billie Jo Spears - I'm so lonesome i could cry
TTITLE2=Connie Francis - Heartbeat
TTITLE3=Dolly Parton - Mak'in Believe
TTITLE4=Lynn Anderson - What a Man my Man is
TTITLE5=Skeeter Davis - Just when i needed you most
TTITLE6=Kitty Wells - Password
TTITLE7=Barbara Mandrell - The Wayward Wind
TTITLE8=Loretta Lynn - Coal Miner's Daughter
TTITLE9=Jennie C Riley - There never was a time
TTITLE10=Melba Montgomery - No Charge
TTITLE11=Sandy Posey - Bring him safely home to me
TTITLE12=Donna Fargo -  Funny Face
TTITLE13=Wilma Burgess - Baby
TTITLE14=Wanda Jackson - Tears will be the Caser
TTITLE15=Tammy Wynette - D.I.V.O.R.C.E.
EXTD=
EXTT0=
EXTT1=
EXTT2=
EXTT3=
EXTT4=
EXTT5=
EXTT6=
EXTT7=
EXTT8=
EXTT9=
EXTT10=
EXTT11=
EXTT12=
EXTT13=
EXTT14=
EXTT15=
PLAYORDER=
